<?xml version="1.0" encoding="utf-8"?>
<!-- Generator: Adobe Illustrator 23.0.6, SVG Export Plug-In . SVG Version: 6.00 Build 0)  -->
<svg version="1.1" id="Layer_1" xmlns="http://www.w3.org/2000/svg" xmlns:xlink="http://www.w3.org/1999/xlink" x="0px" y="0px"
	 viewBox="0 0 530 91.9" style="enable-background:new 0 0 530 91.9;" xml:space="preserve">
<style type="text/css">
	.st0{fill:#336082;}
	.st1{fill:#5585B1;}
	.st2{fill:#5389B2;}
	.st3{fill:#5094B4;}
	.st4{fill:#4A9EB6;}
	.st5{fill:#49A0B7;}
	.st6{fill:#43AFB9;}
	.st7{fill:url(#SVGID_1_);}
	.st8{fill:#FFFFFF;}
</style>
<path class="st0" d="M113.3,8.6h29.3c5.3,0,9.7,0.8,13.4,2.4s6.4,3.8,8.3,6.6c1.8,2.8,2.8,6.1,2.8,9.9c0,2.8-0.6,5.3-1.7,7.4
	c-1.1,2.2-2.7,4-4.7,5.4s-4.3,2.4-6.9,3V44c2.8,0.1,5.5,0.9,7.9,2.4c2.5,1.5,4.5,3.6,5.9,6.2c1.5,2.7,2.2,5.8,2.2,9.3
	c0,3.9-1,7.4-2.9,10.5c-1.9,3-4.8,5.4-8.6,7.2c-3.8,1.7-8.4,2.6-13.8,2.6h-31.2V8.6z M146.1,38.3c1.7-0.8,3-1.9,4-3.3s1.4-3.1,1.4-5
	c0-1.8-0.4-3.4-1.3-4.8c-0.8-1.3-2.1-2.4-3.7-3.1c-1.6-0.7-3.6-1.1-5.9-1.1h-12v18.5h11.7C142.5,39.5,144.4,39.1,146.1,38.3z
	 M148.6,68.5c1.9-0.8,3.3-1.8,4.1-3.2c0.9-1.4,1.3-3,1.3-4.9c0-2-0.5-3.9-1.5-5.5s-2.4-2.9-4.2-3.7c-1.8-0.9-4-1.3-6.5-1.3h-13.3
	v19.8h12.9C144.3,69.7,146.7,69.3,148.6,68.5z"/>
<path class="st0" d="M204.4,58.8l-4.9,0.4c-2.7,0.2-4.8,0.9-6.3,2.2c-1.5,1.2-2.3,2.9-2.3,5c0,1.4,0.3,2.5,1,3.5
	c0.7,0.9,1.7,1.7,2.9,2.2c1.3,0.5,2.7,0.8,4.3,0.8c2.3,0,4.3-0.4,6-1.3c1.8-0.9,3.1-2.1,4.1-3.7s1.5-3.3,1.5-5.2l-0.1-17.8
	c0-1.6-0.3-2.9-1-4s-1.7-1.9-3-2.5s-2.9-0.8-4.8-0.8c-2.5,0-4.6,0.5-6.2,1.6c-1.6,1.1-2.6,2.6-3,4.5h-14.3c0.3-3.3,1.5-6.2,3.4-8.8
	s4.7-4.6,8.1-6.1c3.5-1.5,7.6-2.2,12.3-2.2c4.3,0,8.2,0.7,11.7,2s6.4,3.4,8.5,6.2c2.2,2.8,3.2,6.3,3.2,10.5v37.2h-14.3v-7.6h-0.4
	c-0.9,1.7-2.1,3.2-3.6,4.5s-3.3,2.3-5.4,3c-2.1,0.7-4.5,1.1-7.2,1.1c-3.6,0-6.7-0.6-9.5-1.9c-2.7-1.3-4.9-3.1-6.5-5.6
	s-2.4-5.5-2.4-8.9c0-5.8,1.9-9.9,5.7-12.6c3.8-2.6,8.8-4.1,14.8-4.5c1-0.1,4.2-0.3,9.4-0.5l5-0.2l0.1,9.3
	C210.2,58.4,207.8,58.5,204.4,58.8z"/>
<path class="st0" d="M247.7,79.8c-4.1-2.3-7.3-5.6-9.5-9.9s-3.3-9.3-3.3-15s1.1-10.7,3.3-15s5.3-7.7,9.4-10c4-2.4,8.7-3.6,14-3.6
	c5,0,9.4,1,13.3,3.1s7,5.2,9.2,9.4s3.4,9.3,3.4,15.4v4.2H241V49h32.3c0-2.2-0.5-4.2-1.5-6c-1-1.7-2.3-3.1-4.1-4.1
	c-1.7-1-3.7-1.5-5.9-1.5c-2.3,0-4.4,0.5-6.3,1.6c-1.8,1.1-3.3,2.5-4.3,4.4s-1.6,3.9-1.6,6.1v8.8c0,2.7,0.5,5.2,1.6,7.2
	c1.1,2.1,2.5,3.6,4.4,4.7s4.1,1.6,6.7,1.6c1.7,0,3.2-0.2,4.6-0.7s2.6-1.1,3.5-1.9c1-0.8,1.7-1.7,2.2-2.8h14.3
	c-0.7,3.4-2.2,6.3-4.4,8.8c-2.2,2.5-5.1,4.5-8.6,5.8c-3.5,1.4-7.5,2.1-11.9,2.1C256.7,83.3,251.9,82.1,247.7,79.8z"/>
<path class="st0" d="M307.4,79.7c-4.1-2.4-7.3-5.7-9.5-10s-3.3-9.3-3.3-14.9c0-5.7,1.1-10.7,3.3-15c2.2-4.3,5.4-7.6,9.5-10
	s8.9-3.6,14.4-3.6s10.2,1.2,14.4,3.6c4.1,2.4,7.3,5.7,9.4,10c2.2,4.3,3.3,9.3,3.3,15c0,5.6-1.1,10.6-3.3,14.9
	c-2.2,4.3-5.3,7.6-9.4,10s-8.9,3.6-14.4,3.6C316.3,83.3,311.5,82.1,307.4,79.7z M328.3,69.5c1.7-1.5,3.1-3.5,3.9-6
	c0.9-2.6,1.3-5.5,1.3-8.7c0-3.3-0.4-6.2-1.3-8.7s-2.2-4.5-3.9-6c-1.7-1.5-3.9-2.2-6.4-2.2c-2.6,0-4.8,0.7-6.6,2.2
	c-1.8,1.5-3.2,3.4-4.1,6c-0.9,2.5-1.4,5.4-1.4,8.8c0,3.3,0.5,6.2,1.4,8.7s2.3,4.5,4.1,6c1.8,1.5,4,2.2,6.6,2.2
	C324.4,71.6,326.6,70.9,328.3,69.5z"/>
<path class="st0" d="M368.8,79.7c-4.1-2.4-7.3-5.7-9.5-10s-3.3-9.3-3.3-14.9c0-5.7,1.1-10.7,3.3-15c2.2-4.3,5.4-7.6,9.5-10
	s8.9-3.6,14.4-3.6s10.2,1.2,14.4,3.6c4.1,2.4,7.3,5.7,9.4,10c2.2,4.3,3.3,9.3,3.3,15c0,5.6-1.1,10.6-3.3,14.9
	c-2.2,4.3-5.3,7.6-9.4,10s-8.9,3.6-14.4,3.6C377.7,83.3,372.9,82.1,368.8,79.7z M389.7,69.5c1.7-1.5,3.1-3.5,3.9-6
	c0.9-2.6,1.3-5.5,1.3-8.7c0-3.3-0.4-6.2-1.3-8.7s-2.2-4.5-3.9-6c-1.7-1.5-3.9-2.2-6.4-2.2c-2.6,0-4.8,0.7-6.6,2.2
	c-1.8,1.5-3.2,3.4-4.1,6c-0.9,2.5-1.4,5.4-1.4,8.8c0,3.3,0.5,6.2,1.4,8.7s2.3,4.5,4.1,6c1.8,1.5,4,2.2,6.6,2.2
	C385.8,71.6,388,70.9,389.7,69.5z"/>
<path class="st0" d="M428.6,79.8c-3.4-2.2-6.1-5.4-8-9.7c-1.9-4.3-2.9-9.4-2.9-15.4c0-6.1,1-11.3,3-15.6s4.7-7.5,8.1-9.6
	s7.2-3.2,11.4-3.2c2.9,0,5.4,0.5,7.5,1.4c2.1,1,3.8,2.2,5,3.6s2.3,3.1,3.2,4.9h0.5V8.6h15v73.6h-14.8v-8.8h-0.7
	c-0.9,1.8-2,3.4-3.2,4.8s-2.9,2.5-5,3.5c-2.1,0.9-4.6,1.4-7.4,1.4C435.9,83.1,432,82,428.6,79.8z M451.2,69c1.8-1.4,3.1-3.3,4.1-5.8
	c0.9-2.5,1.4-5.4,1.4-8.7s-0.5-6.2-1.4-8.6c-0.9-2.4-2.3-4.3-4-5.6c-1.8-1.3-3.9-2-6.4-2s-4.6,0.7-6.4,2s-3.1,3.2-4,5.7
	c-0.9,2.4-1.3,5.3-1.3,8.5s0.4,6.1,1.3,8.6c0.9,2.5,2.2,4.4,4,5.8s3.9,2.1,6.4,2.1C447.2,71.1,449.4,70.4,451.2,69z"/>
<path class="st0" d="M508.6,58.8l-4.9,0.4c-2.7,0.2-4.8,0.9-6.3,2.2c-1.5,1.2-2.3,2.9-2.3,5c0,1.4,0.3,2.5,1,3.5
	c0.7,0.9,1.7,1.7,2.9,2.2c1.3,0.5,2.7,0.8,4.3,0.8c2.3,0,4.3-0.4,6-1.3c1.8-0.9,3.1-2.1,4.1-3.7s1.5-3.3,1.5-5.2l0.1-18.1
	c0-1.6-0.3-2.9-1-4s-1.7-1.9-3-2.5s-2.9-0.8-4.8-0.8c-2.5,0-4.6,0.5-6.2,1.6s-2.6,2.6-3,4.5h-14.3c0.3-3.3,1.5-6.2,3.4-8.8
	s4.7-4.6,8.1-6.1c3.5-1.5,7.6-2.2,12.3-2.2c4.3,0,8.2,0.7,11.7,2s6.4,3.4,8.5,6.2c2.2,2.8,3.2,6.3,3.2,10.5v37.2h-14.3v-7.6h-0.4
	c-0.9,1.7-2.1,3.2-3.6,4.5c-1.5,1.3-3.3,2.3-5.4,3s-4.5,1.1-7.2,1.1c-3.6,0-6.7-0.6-9.5-1.9c-2.7-1.3-4.9-3.1-6.5-5.6
	s-2.4-5.5-2.4-8.9c0-5.8,1.9-9.9,5.7-12.6c3.8-2.6,8.8-4.1,14.8-4.5c1-0.1,4.2-0.3,9.4-0.5l5-0.2l0.1,9.3
	C514.4,58.4,512,58.5,508.6,58.8z"/>
<path class="st1" d="M113.3-101.4h29.3c5.3,0,9.7,0.8,13.4,2.4s6.4,3.8,8.3,6.6c1.8,2.8,2.8,6.1,2.8,9.9c0,2.8-0.6,5.3-1.7,7.4
	c-1.1,2.2-2.7,4-4.7,5.4s-4.3,2.4-6.9,3v0.7c2.8,0.1,5.5,0.9,7.9,2.4c2.5,1.5,4.5,3.6,5.9,6.2c1.5,2.7,2.2,5.8,2.2,9.3
	c0,3.9-1,7.4-2.9,10.5c-1.9,3-4.8,5.4-8.6,7.2c-3.8,1.7-8.4,2.6-13.8,2.6h-31.2V-101.4z M146.1-71.7c1.7-0.8,3-1.9,4-3.3
	s1.4-3.1,1.4-5c0-1.8-0.4-3.4-1.3-4.8c-0.8-1.3-2.1-2.4-3.7-3.1c-1.6-0.7-3.6-1.1-5.9-1.1h-12v18.5h11.7
	C142.5-70.5,144.4-70.9,146.1-71.7z M148.6-41.5c1.9-0.8,3.3-1.8,4.1-3.2c0.9-1.4,1.3-3,1.3-4.9c0-2-0.5-3.9-1.5-5.5
	s-2.4-2.9-4.2-3.7c-1.8-0.9-4-1.3-6.5-1.3h-13.3v19.8h12.9C144.3-40.3,146.7-40.7,148.6-41.5z"/>
<path class="st2" d="M204.4-51.2l-4.9,0.4c-2.7,0.2-4.8,0.9-6.3,2.2c-1.5,1.2-2.3,2.9-2.3,5c0,1.4,0.3,2.5,1,3.5
	c0.7,0.9,1.7,1.7,2.9,2.2c1.3,0.5,2.7,0.8,4.3,0.8c2.3,0,4.3-0.4,6-1.3c1.8-0.9,3.1-2.1,4.1-3.7s1.5-3.3,1.5-5.2l-0.1-17.8
	c0-1.6-0.3-2.9-1-4s-1.7-1.9-3-2.5s-2.9-0.8-4.8-0.8c-2.5,0-4.6,0.5-6.2,1.6c-1.6,1.1-2.6,2.6-3,4.5h-14.3c0.3-3.3,1.5-6.2,3.4-8.8
	s4.7-4.6,8.1-6.1c3.5-1.5,7.6-2.2,12.3-2.2c4.3,0,8.2,0.7,11.7,2s6.4,3.4,8.5,6.2c2.2,2.8,3.2,6.3,3.2,10.5v37.2h-14.3v-7.6h-0.4
	c-0.9,1.7-2.1,3.2-3.6,4.5s-3.3,2.3-5.4,3c-2.1,0.7-4.5,1.1-7.2,1.1c-3.6,0-6.7-0.6-9.5-1.9c-2.7-1.3-4.9-3.1-6.5-5.6
	s-2.4-5.5-2.4-8.9c0-5.8,1.9-9.9,5.7-12.6c3.8-2.6,8.8-4.1,14.8-4.5c1-0.1,4.2-0.3,9.4-0.5l5-0.2l0.1,9.3
	C210.2-51.6,207.8-51.5,204.4-51.2z"/>
<path class="st3" d="M247.7-30.2c-4.1-2.3-7.3-5.6-9.5-9.9s-3.3-9.3-3.3-15s1.1-10.7,3.3-15s5.3-7.7,9.4-10c4-2.4,8.7-3.6,14-3.6
	c5,0,9.4,1,13.3,3.1s7,5.2,9.2,9.4c2.2,4.2,3.4,9.3,3.4,15.4v4.2H241V-61h32.3c0-2.2-0.5-4.2-1.5-6c-1-1.7-2.3-3.1-4.1-4.1
	c-1.7-1-3.7-1.5-5.9-1.5c-2.3,0-4.4,0.5-6.3,1.6c-1.8,1.1-3.3,2.5-4.3,4.4s-1.6,3.9-1.6,6.1v8.8c0,2.7,0.5,5.2,1.6,7.2
	c1.1,2.1,2.5,3.6,4.4,4.7s4.1,1.6,6.7,1.6c1.7,0,3.2-0.2,4.6-0.7s2.6-1.1,3.5-1.9c1-0.8,1.7-1.7,2.2-2.8h14.3
	c-0.7,3.4-2.2,6.3-4.4,8.8c-2.2,2.5-5.1,4.5-8.6,5.8c-3.5,1.4-7.5,2.1-11.9,2.1C256.7-26.7,251.9-27.9,247.7-30.2z"/>
<path class="st3" d="M307.4-30.3c-4.1-2.4-7.3-5.7-9.5-10s-3.3-9.3-3.3-14.9c0-5.7,1.1-10.7,3.3-15c2.2-4.3,5.4-7.6,9.5-10
	s8.9-3.6,14.4-3.6s10.2,1.2,14.4,3.6c4.1,2.4,7.3,5.7,9.4,10c2.2,4.3,3.3,9.3,3.3,15c0,5.6-1.1,10.6-3.3,14.9
	c-2.2,4.3-5.3,7.6-9.4,10s-8.9,3.6-14.4,3.6C316.3-26.7,311.5-27.9,307.4-30.3z M328.3-40.5c1.7-1.5,3.1-3.5,3.9-6
	c0.9-2.6,1.3-5.5,1.3-8.7c0-3.3-0.4-6.2-1.3-8.7s-2.2-4.5-3.9-6c-1.7-1.5-3.9-2.2-6.4-2.2c-2.6,0-4.8,0.7-6.6,2.2
	c-1.8,1.5-3.2,3.4-4.1,6c-0.9,2.5-1.4,5.4-1.4,8.8c0,3.3,0.5,6.2,1.4,8.7s2.3,4.5,4.1,6c1.8,1.5,4,2.2,6.6,2.2
	C324.4-38.4,326.6-39.1,328.3-40.5z"/>
<path class="st4" d="M368.8-30.3c-4.1-2.4-7.3-5.7-9.5-10s-3.3-9.3-3.3-14.9c0-5.7,1.1-10.7,3.3-15c2.2-4.3,5.4-7.6,9.5-10
	s8.9-3.6,14.4-3.6s10.2,1.2,14.4,3.6c4.1,2.4,7.3,5.7,9.4,10c2.2,4.3,3.3,9.3,3.3,15c0,5.6-1.1,10.6-3.3,14.9
	c-2.2,4.3-5.3,7.6-9.4,10s-8.9,3.6-14.4,3.6C377.7-26.7,372.9-27.9,368.8-30.3z M389.7-40.5c1.7-1.5,3.1-3.5,3.9-6
	c0.9-2.6,1.3-5.5,1.3-8.7c0-3.3-0.4-6.2-1.3-8.7s-2.2-4.5-3.9-6c-1.7-1.5-3.9-2.2-6.4-2.2c-2.6,0-4.8,0.7-6.6,2.2
	c-1.8,1.5-3.2,3.4-4.1,6c-0.9,2.5-1.4,5.4-1.4,8.8c0,3.3,0.5,6.2,1.4,8.7s2.3,4.5,4.1,6c1.8,1.5,4,2.2,6.6,2.2
	C385.8-38.4,388-39.1,389.7-40.5z"/>
<path class="st5" d="M428.6-30.2c-3.4-2.2-6.1-5.4-8-9.7s-2.9-9.4-2.9-15.4c0-6.1,1-11.3,3-15.6c2-4.3,4.7-7.5,8.1-9.6
	s7.2-3.2,11.4-3.2c2.9,0,5.4,0.5,7.5,1.4c2.1,1,3.8,2.2,5,3.6s2.3,3.1,3.2,4.9h0.5v-27.6h15v73.6h-14.8v-8.8h-0.7
	c-0.9,1.8-2,3.4-3.2,4.8s-2.9,2.5-5,3.5c-2.1,0.9-4.6,1.4-7.4,1.4C435.9-26.9,432-28,428.6-30.2z M451.2-41c1.8-1.4,3.1-3.3,4.1-5.8
	c0.9-2.5,1.4-5.4,1.4-8.7s-0.5-6.2-1.4-8.6c-0.9-2.4-2.3-4.3-4-5.6c-1.8-1.3-3.9-2-6.4-2s-4.6,0.7-6.4,2s-3.1,3.2-4,5.7
	c-0.9,2.4-1.3,5.3-1.3,8.5s0.4,6.1,1.3,8.6c0.9,2.5,2.2,4.4,4,5.8s3.9,2.1,6.4,2.1C447.2-38.9,449.4-39.6,451.2-41z"/>
<path class="st6" d="M508.6-51.2l-4.9,0.4c-2.7,0.2-4.8,0.9-6.3,2.2c-1.5,1.2-2.3,2.9-2.3,5c0,1.4,0.3,2.5,1,3.5
	c0.7,0.9,1.7,1.7,2.9,2.2c1.3,0.5,2.7,0.8,4.3,0.8c2.3,0,4.3-0.4,6-1.3c1.8-0.9,3.1-2.1,4.1-3.7s1.5-3.3,1.5-5.2l0.1-18.1
	c0-1.6-0.3-2.9-1-4s-1.7-1.9-3-2.5s-2.9-0.8-4.8-0.8c-2.5,0-4.6,0.5-6.2,1.6s-2.6,2.6-3,4.5h-14.3c0.3-3.3,1.5-6.2,3.4-8.8
	s4.7-4.6,8.1-6.1c3.5-1.5,7.6-2.2,12.3-2.2c4.3,0,8.2,0.7,11.7,2s6.4,3.4,8.5,6.2c2.2,2.8,3.2,6.3,3.2,10.5v37.2h-14.3v-7.6h-0.4
	c-0.9,1.7-2.1,3.2-3.6,4.5c-1.5,1.3-3.3,2.3-5.4,3s-4.5,1.1-7.2,1.1c-3.6,0-6.7-0.6-9.5-1.9c-2.7-1.3-4.9-3.1-6.5-5.6
	s-2.4-5.5-2.4-8.9c0-5.8,1.9-9.9,5.7-12.6c3.8-2.6,8.8-4.1,14.8-4.5c1-0.1,4.2-0.3,9.4-0.5l5-0.2l0.1,9.3
	C514.4-51.6,512-51.5,508.6-51.2z"/>
<g>
	
		<linearGradient id="SVGID_1_" gradientUnits="userSpaceOnUse" x1="0" y1="795.9" x2="91.8" y2="795.9" gradientTransform="matrix(1 0 0 1 0 -750)">
		<stop  offset="0" style="stop-color:#5585B1"/>
		<stop  offset="1" style="stop-color:#43AFB9"/>
	</linearGradient>
	<circle class="st7" cx="45.9" cy="45.9" r="45.9"/>
	<g>
		<rect x="51.7" y="67.9" class="st8" width="6.7" height="24"/>
	</g>
	<path class="st8" d="M45.8,47c9,6.6,9.6,20.9,9.6,20.9s-13.9,3.6-22.8-3S21.3,46,23,44S36.8,40.4,45.8,47z"/>
	<path class="st8" d="M64.2,46.9c-9.1,6.7-9.8,21.2-9.8,21.2s14.1,3.6,23.2-3.1s11.5-19.2,9.8-21.2C85.7,41.9,73.3,40.2,64.2,46.9z"
		/>
</g>
</svg>
